<?xml version="1.0" standalone="no"?>
<!DOCTYPE svg PUBLIC "-//W3C//DTD SVG 20010904//EN"
 "http://www.w3.org/TR/2001/REC-SVG-20010904/DTD/svg10.dtd">
<svg version="1.0" xmlns="http://www.w3.org/2000/svg"
 width="512.000000pt" height="512.000000pt" viewBox="0 0 512.000000 512.000000"
 preserveAspectRatio="xMidYMid meet">
<metadata>
Created by potrace 1.11, written by Peter Selinger 2001-2013
</metadata>
<g transform="translate(0.000000,512.000000) scale(0.100000,-0.100000)"
fill="#000000" stroke="none">
<path d="M485 5100 c-182 -49 -333 -170 -413 -331 -78 -157 -73 7 -70 -2241
l3 -2013 23 -65 c22 -61 69 -153 95 -188 7 -8 40 -44 75 -78 68 -68 150 -119
252 -156 l65 -23 2013 -3 c2247 -3 2085 -8 2240 69 146 73 259 203 320 371
l27 73 0 2040 0 2040 -23 70 c-38 113 -81 184 -163 266 -87 87 -176 137 -299
169 -73 19 -130 19 -2075 19 -1916 -1 -2003 -2 -2070 -19z m1570 -650 c56 -28
125 -94 148 -140 38 -75 38 -100 35 -1625 l-3 -1490 -24 -49 c-31 -63 -94
-126 -157 -157 l-49 -24 -565 0 -565 0 -50 25 c-56 28 -125 94 -148 140 -38
75 -38 99 -35 1625 l3 1490 24 47 c40 82 107 141 191 171 39 14 115 16 595 14
l550 -2 50 -25z m2240 0 c57 -29 128 -96 149 -143 35 -76 36 -108 36 -953 0
-754 -2 -845 -16 -890 -30 -87 -88 -154 -172 -195 l-47 -24 -565 0 -565 0 -49
25 c-65 33 -126 93 -156 155 l-25 50 0 885 0 885 23 46 c41 83 108 143 192
173 39 14 114 15 595 13 l550 -2 50 -25z"/>
</g>
</svg>
